<svg width="39" height="39" viewBox="0 0 20 20" fill="none" xmlns="http://www.w3.org/2000/svg"><path fill-rule="evenodd" clip-rule="evenodd" d="M9.39958 5.38C9.39958 5.56 9.49958 5.74 9.68958 5.92C11.2696 7.09 12.8496 8.26 14.4196 9.43L9.25958 16.39C8.89958 16.86 8.21958 16.96 7.74958 16.61L4.30958 14.05C3.82958 13.7 3.72958 13.02 4.07958 12.54L9.39958 5.38ZM12.0996 9.33L12.6096 9.71L8.33958 15.47L7.81958 15.09L12.0996 9.33ZM10.8096 8.37L11.3196 8.75L7.03958 14.51L6.52958 14.13L10.8096 8.37ZM9.50958 7.4L10.0196 7.78L5.73958 13.54L5.22958 13.16L9.50958 7.4Z" fill="#FEFEFE"></path><path fill-rule="evenodd" clip-rule="evenodd" d="M10.6699 5.84999L14.2999 8.53999C14.5899 8.75999 14.9899 8.69999 15.1999 8.40999L15.2099 8.39999C15.4199 8.11999 15.3599 7.70999 15.0699 7.49999L11.9699 5.18999C11.6799 4.97999 11.2699 5.03999 11.0599 5.32999L10.6699 5.84999Z" fill="#FEFEFE"></path><path fill-rule="evenodd" clip-rule="evenodd" d="M15.2791 6.05C15.6091 6.29 15.6591 6.64 15.4591 6.98L12.2291 4.6C11.3691 4.14 10.6991 4.51 10.1491 5.46C9.99912 5.34 9.83912 5.15 9.85912 5.01C9.93912 4.28 10.7491 3.76 11.5391 3.75C12.2391 3.75 12.6491 4.09 13.2091 4.49C13.8391 4.95 14.6091 5.55 15.2791 6.05Z" fill="#FEFEFE"></path></svg>