<svg width="39" height="39" viewBox="0 0 20 20" fill="none" xmlns="http://www.w3.org/2000/svg"><path d="M15.5204 4.16001L15.5304 4.17001C15.8604 4.51001 15.8604 5.05001 15.5304 5.39001L5.71035 15.2C5.38035 15.54 4.83035 15.54 4.50035 15.2L4.49035 15.19C4.15035 14.86 4.15035 14.31 4.49035 13.98L14.3004 4.16001C14.6404 3.83001 15.1804 3.83001 15.5204 4.16001Z" fill="#FEFEFE"></path><path d="M15.2802 9.2L14.3802 10.1C14.1702 9.84 13.8402 9.67 13.4802 9.67V11L12.6402 11.84C12.4302 11.57 12.1102 11.41 11.7402 11.41V12.74L10.9002 13.57C10.6902 13.31 10.3702 13.14 10.0102 13.14V14.47L9.42023 15.05C8.79023 15.55 7.88023 15.53 7.28023 14.97L7.24023 14.93L15.2802 6.89C15.9102 7.53 15.9102 8.56 15.2802 9.2Z" fill="#FEFEFE"></path><path d="M12.7508 4.36001L4.71078 12.4C4.08078 11.76 4.08078 10.73 4.71078 10.09L5.61078 9.19001C5.82078 9.46001 6.15078 9.62001 6.51078 9.62001V8.29001L7.35078 7.46001C7.56078 7.72001 7.88078 7.89001 8.25078 7.89001V6.56001L9.09078 5.72001C9.30078 5.98001 9.62078 6.15001 9.98078 6.15001V4.83001L10.5708 4.24001C11.2008 3.74001 12.1108 3.76001 12.7108 4.32001L12.7508 4.36001Z" fill="#FEFEFE"></path></svg>